<?xml version="1.0" encoding="utf-8"?>
<!-- Generator: Adobe Illustrator 18.1.1, SVG Export Plug-In . SVG Version: 6.00 Build 0)  -->
<!DOCTYPE svg PUBLIC "-//W3C//DTD SVG 1.1//EN" "http://www.w3.org/Graphics/SVG/1.1/DTD/svg11.dtd">
<svg version="1.1" id="Ebene_1" xmlns="http://www.w3.org/2000/svg" xmlns:xlink="http://www.w3.org/1999/xlink" x="0px" y="0px"
	 viewBox="0 0 100 100" enable-background="new 0 0 100 100" xml:space="preserve">
<g>
	<g id="Kreis_1_">
		<path fill="#5B5B5B" d="M50.1,5.6c24.5,0,44.6,20,44.6,44.4S74.6,94.4,50.1,94.4S5.6,74.4,5.6,50S25.6,5.6,50.1,5.6 M50.1,0
			C22.6,0,0,22.5,0,50s22.6,50,50.1,50s50.1-22.5,50.1-50C100.2,22.2,77.7,0,50.1,0L50.1,0z"/>
	</g>
	<g>
		<g>
			<path fill="#525050" d="M69.6,68.3h-39c-8.1,0-14.8-6.1-14.8-13.9V38.9h5v15.6c0,4.7,4.5,8.6,9.7,8.6h39c5.3,0,9.7-3.9,9.7-8.6
				V38.9h5v15.6C84.4,62.2,77.7,68.3,69.6,68.3z"/>
		</g>
		<rect x="41.2" y="63.6" fill="#B3B4B4" width="16.7" height="11.1"/>
		<rect x="35.4" y="57.5" fill="#5B5B5B" width="28.4" height="5.6"/>
		<g>
			<g>
				<line fill="none" stroke="#EBEBEB" stroke-miterlimit="10" x1="21.2" y1="52.8" x2="25.3" y2="52.8"/>
				
					<line fill="none" stroke="#EBEBEB" stroke-miterlimit="10" stroke-dasharray="3.1532,1.0511" x1="28.1" y1="52.8" x2="73.5" y2="52.8"/>
				<line fill="none" stroke="#EBEBEB" stroke-miterlimit="10" x1="74.9" y1="52.8" x2="79.1" y2="52.8"/>
			</g>
		</g>
		<g>
			<g>
				<path fill="#EBEBEB" d="M47.6,40.3c0-1.4,0-2.5,0-3.6c1.1,0,2.5,0,3.6,0c0,1.1,0,2.5,0,3.6C50.1,40.3,49,40.3,47.6,40.3z"/>
				<path fill="#EBEBEB" d="M47.6,47.8c0-1.4,0-2.5,0-3.6c1.1,0,2.5,0,3.6,0c0,1.1,0,2.5,0,3.6C50.1,47.8,49,47.8,47.6,47.8z"/>
				<path fill="#EBEBEB" d="M51.5,28.9c0,1.1,0,2.5,0,3.6c-1.1,0-2.5,0-3.6,0c0-1.1,0-2.5,0-3.6C49,28.9,50.1,28.9,51.5,28.9z"/>
			</g>
		</g>
	</g>
</g>
</svg>
